<svg id="Layer_1" data-name="Layer 1" xmlns="http://www.w3.org/2000/svg" xmlns:xlink="http://www.w3.org/1999/xlink" viewBox="0 0 500 500"><defs><style>.cls-1{fill:url(#linear-gradient);}.cls-2{fill:url(#linear-gradient-2);}.cls-3{fill:url(#linear-gradient-3);}.cls-4{fill:url(#linear-gradient-4);}.cls-5{fill:url(#linear-gradient-5);}.cls-6{font-size:68px;fill:#59595b;font-family:Montserrat-Bold, Montserrat;font-weight:700;}.cls-7{letter-spacing:-0.01em;}.cls-8{letter-spacing:-0.01em;}.cls-9{letter-spacing:0.01em;}</style><linearGradient id="linear-gradient" x1="186.3" y1="180.29" x2="303.49" y2="180.29" gradientUnits="userSpaceOnUse"><stop offset="0" stop-color="#fd92fd"/><stop offset="0.51" stop-color="#806dfd"/><stop offset="1" stop-color="#6a2dfd"/></linearGradient><linearGradient id="linear-gradient-2" x1="248.27" y1="235.06" x2="351.04" y2="235.06" xlink:href="#linear-gradient"/><linearGradient id="linear-gradient-3" x1="92.76" y1="235.05" x2="241.53" y2="235.05" xlink:href="#linear-gradient"/><linearGradient id="linear-gradient-4" x1="99.44" y1="128.06" x2="241.52" y2="128.06" xlink:href="#linear-gradient"/><linearGradient id="linear-gradient-5" x1="248.25" y1="128.06" x2="398.37" y2="128.06" xlink:href="#linear-gradient"/></defs><title>Artboard 1</title><path class="cls-1" d="M303.49,180.29a58.6,58.6,0,1,0-58.59,58.58A58.66,58.66,0,0,0,303.49,180.29Zm-16,27.11a87,87,0,0,0-9.26-2.82,84.26,84.26,0,0,0,3.38-21.29h13.68A50.29,50.29,0,0,1,287.54,207.4Zm-.59-55.19a50.17,50.17,0,0,1,8.39,25.08H281.66a83.23,83.23,0,0,0-3.73-22.41A93,93,0,0,0,286.94,152.21ZM283,147.13c-2.22.74-4.65,1.39-7.17,2a56.59,56.59,0,0,0-8.08-13.89A50.76,50.76,0,0,1,283,147.13Zm-22.3,30.16c-.08-5.75-.42-12.56-1.14-19.42,4.41-.41,8.6-1,12.56-1.73a78.62,78.62,0,0,1,3.52,21.15Zm14.94,6a79.39,79.39,0,0,1-3.2,20c-4-.77-8.28-1.39-12.76-1.8.63-6.45,1-12.8,1-18.22ZM270,150.38c-3.49.64-7.21,1.15-11.14,1.52-1.12-8.05-2.83-15.65-5.28-21.1C260.27,134.1,266,141.09,270,150.38ZM235.05,177.3c.08-7.08.46-13.44,1-19,2.87.16,5.79.26,8.79.26s5.92-.1,8.79-.26c.58,5.55,1,11.91,1.06,19Zm19.69,6c-.08,6.59-.42,12.53-.93,17.8-2.91-.16-5.87-.27-8.91-.27s-6,.11-8.91.27c-.52-5.26-.85-11.21-.93-17.8Zm-11.31-53.52c.48,0,1-.07,1.46-.07s1,.06,1.46.07c2.05,2.62,4.8,10.19,6.59,22.56-2.63.14-5.29.23-8.05.23s-5.43-.09-8-.23C238.64,140,241.38,132.39,243.44,129.77Zm-7.21,1c-2.46,5.44-4.17,13-5.29,21.1-3.92-.37-7.65-.88-11.15-1.52C223.75,141.09,229.52,134.09,236.23,130.8Zm-7.17,46.49H214.11a79.26,79.26,0,0,1,3.52-21.15q6,1.11,12.56,1.73C229.48,164.74,229.13,171.54,229.05,177.3Zm1,24.22c-4.49.42-8.75,1-12.77,1.8a79.63,79.63,0,0,1-3.19-20h14.94C229.13,188.71,229.45,195.06,230.08,201.51ZM222,135.23a57,57,0,0,0-8.07,13.9c-2.52-.6-4.95-1.26-7.17-2A50.8,50.8,0,0,1,222,135.23Zm-19.17,17a93.27,93.27,0,0,0,9,2.68,83.29,83.29,0,0,0-3.74,22.4H194.45A50.18,50.18,0,0,1,202.83,152.21Zm-.59,55.19a50.23,50.23,0,0,1-7.8-24.11h13.68a83.94,83.94,0,0,0,3.39,21.29A87.52,87.52,0,0,0,202.25,207.4Zm3.68,5.12c2.33-.8,4.89-1.51,7.58-2.18a57.75,57.75,0,0,0,8.49,15A51,51,0,0,1,205.93,212.53Zm13.37-3.43q5.39-1,11.47-1.61c1.12,8.5,2.88,16.58,5.46,22.29C229.25,226.35,223.28,218.94,219.3,209.1Zm27.05,21.72c-.49,0-1,.07-1.46.07s-1-.06-1.46-.07c-2.12-2.71-5-10.66-6.76-23.76,2.68-.14,5.4-.24,8.22-.24s5.55.1,8.23.24C251.33,220.15,248.48,228.11,246.35,230.82Zm7.22-1c2.58-5.71,4.34-13.78,5.47-22.29,4,.39,7.88.93,11.46,1.61C266.51,218.94,260.55,226.35,253.57,229.78Zm14.21-4.42a57.72,57.72,0,0,0,8.51-15c2.68.66,5.24,1.38,7.57,2.18A51.08,51.08,0,0,1,267.78,225.35Z"/><path class="cls-2" d="M337.64,183.67H320.52a75.69,75.69,0,0,1-72.25,72.25v18.86a93.72,93.72,0,0,0,10.12-.91l4.67,12.57,22.23-6.32-2.68-13.36a92.21,92.21,0,0,0,19.26-11.61l10.57,9,16.35-16.33L319.5,237a93.25,93.25,0,0,0,11-19.14l14.26,2.85L351,198.45l-14-5.23A93.27,93.27,0,0,0,337.64,183.67Z"/><path class="cls-3" d="M169.27,183.66h-18.2a94.93,94.93,0,0,0,.69,10l-13,4.84,2.31,8.12H125.69a6.92,6.92,0,1,0,0,3.7H142.1l3,10.4L158.33,218A90.13,90.13,0,0,0,164,229.08H106.32a6.92,6.92,0,1,0,0,3.7h60q1.63,2.46,3.42,4.85l-8.7,10.2,16.34,16.34,10.06-8.59a93.48,93.48,0,0,0,19.68,11.64l-2.59,12.9,22.22,6.32L231.35,274a94.6,94.6,0,0,0,10.18.8V255.92A75.7,75.7,0,0,1,169.27,183.66Z"/><path class="cls-4" d="M106.36,182a6.9,6.9,0,0,0,6.64-5.07h56.27a75.7,75.7,0,0,1,72.25-72.25V88.31a92.29,92.29,0,0,0-9.26.68l-5.52-14.85-22.22,6.32,3.05,15.24A92.52,92.52,0,0,0,189,106.38l-11.67-10L161,112.75l9.7,11.37a92.57,92.57,0,0,0-11.31,18.67l-14.35-2.87-6.32,22.22,13.37,5c-.32,2-.53,4.06-.69,6.1H113a6.91,6.91,0,1,0-6.64,8.77Z"/><path class="cls-5" d="M391.48,124.82a6.9,6.9,0,0,0-6.66,5l-62.93-.29c-1.08-1.61-2.21-3.2-3.4-4.76l10.28-12L312.43,96.41,300.26,106.8a93.39,93.39,0,0,0-18.14-10.64l3.15-15.7L263,74.14l-5.57,15c-3.07-.43-6.14-.66-9.22-.78v16.32a75.7,75.7,0,0,1,72.26,72.26h55.83a6.92,6.92,0,1,0,0-3.7H337.29c-.16-1.92-.35-3.83-.64-5.74l14.4-5.34-2.91-10.23,15,.07a6.92,6.92,0,1,0,0-3.7l-16.06-.07-2.36-8.29L329.39,143a93.66,93.66,0,0,0-5.13-9.71l60.54.28a6.91,6.91,0,1,0,6.68-8.74Z"/><text class="cls-6" transform="translate(2.79 379.08)"><tspan class="cls-7">T</tspan><tspan class="cls-8" x="41.21" y="0">r</tspan><tspan class="cls-9" x="70.04" y="0">a</tspan><tspan x="112.4" y="0">des Digital</tspan></text></svg>