<svg id="Layer_1" data-name="Layer 1" xmlns="http://www.w3.org/2000/svg" xmlns:xlink="http://www.w3.org/1999/xlink" viewBox="0 0 2000 2000"><defs><style>.cls-1{fill:url(#linear-gradient);}.cls-2{fill:url(#linear-gradient-2);}.cls-3{fill:url(#linear-gradient-3);}.cls-4{font-size:119px;}.cls-4,.cls-8{fill:#231f20;font-family:Roboto-ThinItalic, Roboto;font-weight:200;font-style:italic;}.cls-5{letter-spacing:0.01em;}.cls-6{letter-spacing:-0.01em;}.cls-7{letter-spacing:-0.02em;}.cls-8{font-size:78.95px;}.cls-9{letter-spacing:-0.01em;}.cls-10{letter-spacing:-0.01em;}.cls-11{letter-spacing:-0.02em;}.cls-12{letter-spacing:0em;}.cls-13{letter-spacing:0.01em;}.cls-14{letter-spacing:0.01em;}</style><linearGradient id="linear-gradient" x1="411.16" y1="977.57" x2="722.24" y2="977.57" gradientUnits="userSpaceOnUse"><stop offset="0" stop-color="#2e3192"/><stop offset="1" stop-color="#00aeef"/></linearGradient><linearGradient id="linear-gradient-2" x1="505.8" y1="1022.33" x2="817.1" y2="1022.33" xlink:href="#linear-gradient"/><linearGradient id="linear-gradient-3" x1="505.86" y1="999.97" x2="722.19" y2="999.97" xlink:href="#linear-gradient"/></defs><path class="cls-1" d="M722.24,940.61c0,4.33-2.13,6.44-6.25,6.81-1.49.14-3,.1-4.5.1q-98,0-195.94.05c-1.81,0-3.68.4-5.38-.59h0c-3.37-.82-4.3-3.28-4.3-6.38,0-7,0-14,0-20.94,0-4.55,2.33-6.76,6.74-6.77,8.15,0,16.29.09,24.43.15H650c10.8-.07,21.6-.33,32.4-.1,4.18.08,5.7-.78,5.63-5.39-.29-18.28-.21-36.56,0-54.85,0-3.4-.85-5.67-4-6.92-15.64-6.49-31.71-11.41-48.59-13.54-3.25-.41-6.64.12-9.75-1.3A192.84,192.84,0,0,0,563,838.65c-18.86,6.14-36,15.59-52,27.14a191.33,191.33,0,0,0-43.8,50.06c-8.13,15.7-15,31.86-18.42,49.34q-15.24,79,34.85,142a14.91,14.91,0,0,1,3.66,10.33c-.23,11.66-.08,23.31-.09,35v5.71a192.49,192.49,0,0,1-28.17-27.3c-63-74-63.83-184.55-1.93-259.4a23.8,23.8,0,0,1,1.75-1.73,179.34,179.34,0,0,1,47-41.18A177.2,177.2,0,0,1,563.9,803.6a176.4,176.4,0,0,1,66-5.69A165,165,0,0,1,681,808.68c14,4.05,26.78,10.85,39.25,18.26,1.73,1,2,2.44,2,4.19Q722.2,885.87,722.24,940.61Z"/><path class="cls-2" d="M780.83,1115.76c-2.11,3.13-4.62,6-7,9a190.3,190.3,0,0,1-60,51.82c-25.14,14.33-52,23.13-81,25.22-17.27,2.29-34.46,1.12-51.58-1.52-7.67-1.19-15.37-2.48-22.67-5.36-4.12,0-7.63-2-11.35-3.3A204,204,0,0,1,509.45,1174c-2.57-1.51-3.66-3.16-3.65-6.27.11-35.76.06-71.52.08-107.28,0-6,1.73-7.78,7.66-7.78,13.8,0,27.6.13,41.4.2h119c14-.06,27.89-.14,41.84-.17,4.2,0,6.47,2.09,6.46,6.43q0,10.71,0,21.43c0,4.33-2.21,6.41-6.47,6.39l-40.83-.18h-120c-2.33.07-4.66.19-7,.2-7.78,0-7.79,0-7.79,8,0,17.33.16,34.66-.11,52-.06,4,1.27,6.06,4.91,7.34s7.34,3.08,11,4.65a185.43,185.43,0,0,0,72.77,9.74c10.59-1.79,21.25-3.11,31.62-6.09,18.16-5.21,34.84-13.47,50.55-23.82,16.94-12.58,31.79-27.16,43.64-44.75,7.64-11.34,13.11-23.73,18.54-36.17a176.85,176.85,0,0,0,9.72-68.43A199.94,199.94,0,0,0,778.65,961c-6.93-26.28-18.33-50.26-36.26-70.92a4.61,4.61,0,0,1-1.47-3.06c0-14.74,0-29.48,0-45.33,14.74,11.74,27,24.36,37.06,39a183,183,0,0,1,32.69,68.93Q832.36,1039.09,780.83,1115.76Z"/><path class="cls-3" d="M722.19,989.46c0,7.17,0,14.33,0,21.49,0,4.13-2.23,6.11-6.25,6.1q-18.48,0-37-.18H634c-14,.35-28,.46-42,0-14,.33-28,.5-42,0-12.61.09-25.22.24-37.83.25-4.26,0-6.29-2.45-6.28-6.68q0-10.46,0-20.92c0-4.51,2.26-6.79,6.72-6.78,10.46,0,20.91.12,31.37.18h130l41.47-.16C719.87,982.76,722.2,984.9,722.19,989.46Z"/><text class="cls-4" transform="translate(926.3 994.8)">A<tspan class="cls-5" x="69.49" y="0">E</tspan><tspan class="cls-6" x="136.95" y="0">T</tspan><tspan x="205.58" y="0">SM SO</tspan><tspan class="cls-5" x="548.46" y="0">F</tspan><tspan class="cls-7" x="616.27" y="0">T</tspan></text><text class="cls-8" transform="translate(922.12 1089.22)">SW<tspan class="cls-9" x="115.42" y="0">I</tspan><tspan class="cls-10" x="134.66" y="0">T</tspan><tspan x="179.72" y="0">CH</tspan><tspan class="cls-11" x="283.88" y="0"> </tspan><tspan class="cls-10" x="301.04" y="0">T</tspan><tspan class="cls-12" x="346.1" y="0">O B</tspan><tspan class="cls-13" x="462.75" y="0">E</tspan><tspan class="cls-14" x="507.51" y="0">T</tspan><tspan x="554.27" y="0">TER</tspan></text></svg>